<?xml version="1.0" encoding="UTF-8" standalone="no"?>
<!-- Created with Inkscape (http://www.inkscape.org/) -->

<svg
   width="25.4mm"
   height="25.400002mm"
   viewBox="0 0 25.4 25.400002"
   version="1.1"
   id="svg5"
   xml:space="preserve"
   xmlns:inkscape="http://www.inkscape.org/namespaces/inkscape"
   xmlns:sodipodi="http://sodipodi.sourceforge.net/DTD/sodipodi-0.dtd"
   xmlns="http://www.w3.org/2000/svg"
   xmlns:svg="http://www.w3.org/2000/svg"><sodipodi:namedview
     id="namedview7"
     pagecolor="#ffffff"
     bordercolor="#000000"
     borderopacity="0.25"
     inkscape:showpageshadow="2"
     inkscape:pageopacity="0.0"
     inkscape:pagecheckerboard="0"
     inkscape:deskcolor="#d1d1d1"
     inkscape:document-units="mm"
     showgrid="false" /><defs
     id="defs2" /><g
     inkscape:label="Layer 1"
     inkscape:groupmode="layer"
     id="layer1"
     transform="translate(49.08666,-66.429709)"><g
       id="g1705"><g
         id="g1031"
         transform="matrix(1.0030178,0,0,1.0051242,-89.701997,-117.65239)"
         inkscape:export-filename="g1031.svg"
         inkscape:export-xdpi="96"
         inkscape:export-ydpi="96"><ellipse
           style="fill:#ffffff;fill-opacity:1;stroke-width:0.264583"
           id="path1165"
           cx="-36.426636"
           cy="75.826881"
           rx="10.40761"
           ry="4.8321047"
           transform="matrix(0.99699129,0,0,0.99490193,89.432109,117.05259)" /><path
           style="fill:#9350de;stroke-width:0.130935"
           d="m 51.112556,208.33673 c -1.859926,-0.28971 -3.989945,-1.06066 -5.403977,-1.95594 -1.063615,-0.67342 -2.349321,-1.95627 -3.623517,-3.61548 -1.525646,-1.98664 -1.598576,-2.17963 -1.591539,-4.21174 0.0044,-1.28375 0.06405,-1.85432 0.250461,-2.39744 0.259835,-0.75707 2.856087,-5.93271 3.250352,-6.4796 0.128461,-0.17819 0.574003,-0.9363 0.990094,-1.68469 1.171924,-2.10786 2.901921,-4.07547 4.035067,-4.5893 0.551161,-0.24992 0.816707,-0.26928 3.506733,-0.25566 3.441113,0.0174 4.833209,0.21326 5.678966,0.79894 0.8861,0.61361 2.391093,3.02023 5.24508,8.38735 2.411877,4.53569 2.534545,4.85143 2.266413,5.83349 -0.08785,0.32176 -0.161142,0.9195 -0.16287,1.32831 -0.0056,1.33801 -0.846386,2.82817 -2.703229,4.79133 -2.565722,2.71262 -5.480819,4.00807 -9.266026,4.11776 -0.945886,0.0274 -2.058289,-0.003 -2.472008,-0.0673 z m 6.320278,-12.45622 c 0.66126,-0.16311 0.980376,-0.50738 0.980376,-1.05766 0,-0.79328 -0.582518,-1.38083 -1.373397,-1.38527 -0.43181,-0.002 -0.605437,0.0872 -1.091406,0.56323 -0.493251,0.48318 -0.577906,0.64347 -0.577906,1.09418 0,0.87009 0.675851,1.12752 2.062333,0.78552 z m -7.628733,-0.31907 c 0.244232,-0.20131 0.407025,-0.45866 0.407025,-0.64345 0,-0.36672 -0.674774,-1.15718 -1.226333,-1.43659 -1.126492,-0.57064 -2.504081,0.83276 -1.717156,1.74934 0.624563,0.72746 1.859745,0.8885 2.536464,0.3307 z"
           id="path1039" /><path
           style="fill:#6a429d;stroke-width:0.130935"
           d="m 51.251836,208.06881 c -2.669941,-0.27732 -5.045487,-1.29693 -6.879406,-2.95272 -0.929629,-0.83933 -2.575306,-2.8688 -3.239839,-3.99541 -0.202189,-0.34277 -0.420443,-0.65905 -0.485011,-0.70283 -0.168414,-0.1142 0.136111,-2.42327 0.503324,-3.81646 0.358702,-1.36091 1.110872,-3.13024 1.934556,-4.55068 0.553784,-0.955 1.883934,-2.45658 2.421309,-2.73338 0.231952,-0.11947 0.241476,-0.18154 0.09922,-0.64667 -0.236023,-0.77169 -0.195035,-1.08928 0.222316,-1.72258 0.730542,-1.10855 1.550038,-1.67767 2.415757,-1.67767 1.188371,0 2.084268,1.23767 1.643652,2.27069 -0.264729,0.62066 -0.646755,1.0809 -1.206478,1.45348 -0.255962,0.17038 -0.421856,0.36964 -0.372657,0.44762 0.106203,0.16834 2.781844,1.42325 3.61667,1.69628 0.509035,0.16647 0.673684,0.16839 1.204402,0.014 1.187422,-0.34543 3.762622,-1.45689 3.801202,-1.64061 0.02145,-0.10213 -0.179949,-0.44219 -0.44755,-0.75567 -0.267601,-0.31348 -0.577317,-0.75615 -0.688258,-0.9837 -0.184206,-0.37782 -0.180654,-0.46779 0.04093,-1.03673 0.445119,-1.1429 1.401093,-1.71472 2.4679,-1.47619 1.114704,0.24924 1.165429,0.32027 4.311143,6.03685 2.67799,4.86661 3.241692,6.14608 2.967513,6.73556 -0.08002,0.17204 -0.185887,0.768 -0.235256,1.32434 -0.1075,1.21144 -0.369346,1.94535 -1.05905,2.96834 -0.628637,0.93242 -2.369926,2.73638 -3.370755,3.49209 -2.500614,1.88816 -5.790061,2.65458 -9.665631,2.25205 z m 6.278157,-11.98974 c 0.765259,-0.25543 1.1478,-0.70485 1.1478,-1.34845 0,-0.95723 -1.003422,-1.68427 -1.971942,-1.42879 -1.474891,0.38904 -2.114262,2.08308 -1.030515,2.7304 0.513832,0.30691 1.035976,0.32009 1.854657,0.0468 z m -8.008795,-0.0622 c 0.482701,-0.16484 0.82222,-0.62213 0.82222,-1.10744 0,-0.71483 -1.12696,-1.73292 -1.918229,-1.73292 -0.890572,0 -1.771943,0.9825 -1.574094,1.75471 0.101515,0.39621 0.7433,0.89665 1.375656,1.07267 0.625468,0.17411 0.816971,0.17603 1.294447,0.013 z M 55.23821,184.2424 c -1.284292,-0.13652 -1.776247,-0.49351 -1.259286,-0.91379 0.156431,-0.12718 0.475032,-0.10426 1.580641,0.11372 0.761595,0.15016 1.503353,0.27301 1.648352,0.27301 0.301599,0 0.496801,0.23076 0.327256,0.38687 -0.181978,0.16756 -1.362016,0.23958 -2.296963,0.14019 z m -5.746454,-0.34312 c -0.273782,-0.2682 -0.149785,-0.44312 0.314104,-0.44312 0.400862,0 0.746596,0.29188 0.607285,0.51269 -0.128825,0.20419 -0.684779,0.16221 -0.921389,-0.0696 z m 2.320666,-0.17285 c -0.278757,-0.1729 -0.06812,-0.52946 0.312782,-0.52946 0.240377,0 0.334881,0.0692 0.334881,0.24532 0,0.13493 -0.09417,0.28072 -0.209258,0.32398 -0.253462,0.0953 -0.214931,0.0988 -0.438405,-0.0398 z"
           id="path1037" /><path
           style="fill:#4b326b;stroke-width:0.130935"
           d="m 51.335605,207.87269 c -3.064248,-0.42359 -5.058233,-1.25497 -6.773552,-2.82419 -1.087205,-0.99461 -2.555148,-2.77424 -3.202245,-3.88216 -0.394401,-0.67527 -0.40083,-0.71473 -0.332302,-2.03946 0.08099,-1.56557 0.178315,-2.05032 0.721108,-3.59149 0.583786,-1.65757 1.53276,-3.4516 2.15881,-4.08123 0.74656,-0.75082 1.344353,-0.91614 2.467244,-0.68232 1.069533,0.22271 3.025443,0.89722 3.902604,1.34584 0.536322,0.2743 0.836649,0.33686 1.5875,0.3307 0.783629,-0.006 1.322764,-0.14027 3.505729,-0.87034 3.168345,-1.05961 3.698153,-1.16526 4.941275,-0.98539 1.628652,0.23566 1.746536,0.30031 2.329,1.27727 0.287658,0.48249 0.984474,1.79363 1.548481,2.91365 1.156614,2.29684 1.256431,2.77806 0.985426,4.75068 -0.243542,1.77274 -0.957751,2.98446 -2.853899,4.84191 -2.580358,2.5277 -4.772717,3.42851 -8.537783,3.50806 -1.127786,0.0238 -2.229114,0.0186 -2.447396,-0.0115 z m 0.496094,-6.10035 c -0.09095,-0.036 -0.239778,-0.036 -0.330729,0 -0.09095,0.0359 -0.01654,0.0654 0.165365,0.0654 0.181901,0 0.256315,-0.0294 0.165364,-0.0654 z m 6.647656,-0.69425 c 0.303566,-0.0972 0.147022,-0.11334 -0.66583,-0.0685 -0.584487,0.0322 -1.209565,0.12096 -1.389063,0.19719 -0.421759,0.17911 1.462248,0.0611 2.054893,-0.12867 z m -14.575752,-0.65566 c -0.151859,-0.14876 -1.355562,-0.34467 -1.218298,-0.19829 0.04452,0.0475 0.342179,0.13659 0.661459,0.19802 0.319279,0.0614 0.607297,0.11808 0.640039,0.12589 0.03274,0.008 -0.0047,-0.0487 -0.0832,-0.12562 z m 4.124711,-1.41528 c -0.145521,-0.0616 -0.83013,-0.26472 -1.521354,-0.45134 -0.691224,-0.18662 -1.578375,-0.48299 -1.971447,-0.65861 -0.809794,-0.36179 -1.038295,-0.34372 -0.382379,0.0302 1.067659,0.60872 2.917608,1.17601 3.87518,1.18834 l 0.264583,0.003 -0.264583,-0.11204 z m 9.333448,-2.60539 c 0.395456,-0.0831 0.850211,-0.29093 1.083744,-0.49533 0.358173,-0.3135 0.402376,-0.43242 0.402376,-1.08247 0,-0.86994 -0.261722,-1.3317 -0.903734,-1.59448 -0.584131,-0.23908 -0.990291,-0.23169 -1.658412,0.0302 -1.389431,0.54459 -1.786006,2.48004 -0.63609,3.10438 0.391595,0.21262 0.833239,0.22235 1.712116,0.0377 z m -7.604646,-0.17617 c 0.560602,-0.22946 0.912966,-0.92308 0.776998,-1.5295 -0.128733,-0.57416 -1.234081,-1.61137 -1.834891,-1.72178 -1.726283,-0.31724 -2.770147,1.80528 -1.44513,2.93843 0.57433,0.49116 1.718089,0.63412 2.503023,0.31285 z m 8.375937,-6.85756 c -1.002956,-0.35109 -2.18635,-1.31707 -2.063131,-1.68409 0.08742,-0.26039 0.633984,-0.23796 1.327954,0.0545 0.441538,0.18607 0.981024,0.29271 1.541795,0.30476 0.474431,0.0102 0.937015,0.0646 1.027966,0.12084 0.419536,0.25953 -0.03096,0.95839 -0.802362,1.2447 -0.450506,0.16721 -0.436785,0.16775 -1.032222,-0.0407 z M 46.18568,188.95452 c -0.397121,-0.38901 -0.186364,-0.61039 0.866505,-0.91015 0.39135,-0.11143 1.110668,-0.43634 1.598484,-0.72202 0.487816,-0.28569 0.949183,-0.48175 1.02526,-0.43569 0.229213,0.13877 0.157679,0.48072 -0.208984,0.99902 -0.677481,0.95765 -2.71668,1.6219 -3.281265,1.06884 z m 11.532998,-2.65775 c -0.333031,-0.19002 -0.289351,-0.50799 0.06978,-0.50799 0.365524,0 0.923299,0.35969 0.817592,0.52723 -0.09991,0.15836 -0.594905,0.14763 -0.887375,-0.0192 z"
           id="path1035" /><path
           style="fill:#292234;stroke-width:0.130935"
           d="m 52.393939,207.72767 c -2.172663,-0.11925 -4.21645,-0.62586 -5.820834,-1.44284 -1.565253,-0.79707 -4.088659,-3.42687 -5.118001,-5.33381 -0.29688,-0.54999 -0.309486,-0.66424 -0.22162,-2.00867 0.112588,-1.7227 0.596664,-3.33528 1.633876,-5.44286 0.771345,-1.56735 1.416598,-2.31701 2.189582,-2.54387 0.66652,-0.19562 2.709009,0.31172 4.603813,1.14356 1.963828,0.86215 2.223943,0.84787 5.784948,-0.31762 1.522987,-0.49847 3.025014,-0.94836 3.337836,-0.99977 0.836867,-0.13752 2.774041,0.17396 3.147999,0.50617 0.62207,0.55263 2.692396,4.57386 3.040875,5.90635 0.237774,0.90918 0.07241,2.70808 -0.350798,3.81612 -0.768788,2.01283 -3.835043,4.89926 -6.249258,5.88275 -1.527921,0.62244 -3.874436,0.94997 -5.978418,0.83449 z m 0.0124,-5.75957 c 0.05188,-0.0822 -0.01883,-0.23019 -0.157452,-0.32948 -0.307229,-0.22007 -1.660721,-0.17992 -1.738643,0.0516 -0.106471,0.31631 1.704413,0.58173 1.896095,0.27791 z m 2.227988,-0.22595 c 0.04026,-0.0638 -0.0099,-0.14726 -0.111551,-0.18545 -0.193978,-0.0729 -0.342902,0.0111 -0.342902,0.19347 0,0.14473 0.362118,0.13834 0.454453,-0.008 z m -5.894037,-0.26056 c 0.420659,-0.26098 -1.167568,-0.78975 -2.372137,-0.78975 -0.518376,0 -0.675264,0.15119 -0.35729,0.34433 0.123532,0.075 1.889563,0.46628 2.480469,0.54953 0.03638,0.005 0.148411,-0.0417 0.248958,-0.10411 z m 9.833741,-0.15734 c 1.253375,-0.25875 1.344583,-0.63241 0.154366,-0.63241 -0.864299,0 -2.535095,0.23782 -2.861805,0.40735 -0.127331,0.0661 -0.23151,0.21416 -0.23151,0.32908 0,0.18239 0.142356,0.19823 1.119939,0.12462 0.615967,-0.0464 1.434521,-0.14927 1.81901,-0.22864 z m -14.051449,-0.63686 c 0.317489,-0.2081 -0.152042,-0.47171 -1.276818,-0.71684 -0.959456,-0.20911 -1.369016,-0.18975 -1.369016,0.0647 0,0.18807 0.41557,0.37661 1.284691,0.58285 0.946907,0.22471 1.111273,0.23308 1.361143,0.0693 z m 18.653125,-0.38433 c 0,-0.0713 -0.0893,-0.12959 -0.198438,-0.12959 -0.10914,0 -0.198437,0.0583 -0.198437,0.12959 0,0.0713 0.0893,0.1296 0.198437,0.1296 0.109141,0 0.198438,-0.0583 0.198438,-0.1296 z m -11.587101,-0.72633 c 0.290744,-0.10929 0.126822,-0.3104 -0.253004,-0.3104 -0.354032,0 -0.55328,0.20205 -0.29848,0.30268 0.239141,0.0944 0.317844,0.0956 0.551484,0.008 z m -2.241481,-0.3039 c 0.110043,-0.17442 -0.26871,-0.34163 -1.186522,-0.52382 -1.114463,-0.22123 -3.188616,-0.88035 -3.940638,-1.25224 -0.640864,-0.31692 -0.888008,-0.30993 -0.888008,0.0251 0,0.21774 1.091054,0.8562 2.116666,1.23862 1.366108,0.50938 3.706333,0.81693 3.898502,0.51234 z m 7.734876,-2.5968 c 1.477545,-0.27449 1.992664,-0.76064 1.992664,-1.88062 0,-0.69184 -0.246805,-1.22627 -0.742802,-1.60845 -0.681639,-0.52524 -2.308696,-0.27189 -2.989392,0.46548 -0.313744,0.33986 -0.633529,1.12803 -0.632936,1.55998 6.61e-4,0.51491 0.462372,1.18709 0.961224,1.39953 0.521633,0.22214 0.552809,0.22356 1.411242,0.0641 z m -7.507766,-0.13564 c 0.991687,-0.26982 1.467442,-1.38869 0.978904,-2.30218 -0.275467,-0.51508 -0.998194,-1.14997 -1.579418,-1.38746 -0.908968,-0.3714 -2.022459,0.0847 -2.387271,0.97783 -0.276159,0.67611 -0.267109,0.96744 0.04999,1.6091 0.468249,0.94754 1.745726,1.42704 2.937797,1.10271 z m 8.508243,-7.41034 c -0.49391,-0.1708 -1.601894,-0.94877 -1.696992,-1.19153 -0.125683,-0.32085 0.05077,-0.3211 0.917973,-0.001 0.580257,0.21395 1.123957,0.31385 1.70808,0.31385 0.770765,0 0.856876,0.0262 0.856876,0.26109 0,0.29605 -0.711638,0.78014 -1.124479,0.76493 -0.145521,-0.005 -0.443177,-0.0715 -0.661458,-0.14699 z m -11.773959,-0.36066 c -0.135998,-0.21556 0.03729,-0.35466 0.560779,-0.45015 0.518012,-0.0945 1.335536,-0.45497 2.184273,-0.96312 0.415754,-0.24892 0.496094,-0.26353 0.496094,-0.0902 0,0.37649 -0.909861,1.21453 -1.550929,1.42851 -0.691819,0.23091 -1.567329,0.26975 -1.690217,0.075 z"
           id="path1033" /></g></g></g><style
     type="text/css"
     id="style9">
	.st0{display:none;}
	.st1{display:inline;}
	.st2{fill:#12161C;}
	.st3{fill:#F0B90B;}
	.st4{opacity:0.8;fill:#12161C;enable-background:new    ;}
	.st5{fill:#FD9500;}
</style></svg>
